<svg version="1.1" id="Layer_1" xmlns="http://www.w3.org/2000/svg" xmlns:xlink="http://www.w3.org/1999/xlink" x="0px" y="0px"
	 width="100%" viewBox="0 0 1254 480" enable-background="new 0 0 1254 480" xml:space="preserve">
<path fill="#F8F7F3" opacity="1.000000" stroke="none" 
	d="
M818.000000,481.000000 
	C545.333374,481.000000 273.166687,481.000000 1.000036,481.000000 
	C1.000024,321.000031 1.000024,161.000046 1.000012,1.000058 
	C418.999969,1.000039 836.999939,1.000039 1255.000000,1.000019 
	C1255.000000,160.999939 1255.000000,320.999878 1255.000000,480.999908 
	C1109.500000,481.000000 964.000000,481.000000 818.000000,481.000000 
M895.349731,171.292679 
	C895.349731,171.292679 895.165466,171.032257 895.407532,170.495865 
	C893.325867,164.555603 890.155884,162.736023 883.572876,163.702866 
	C878.811768,164.402115 876.730652,167.095886 876.666748,172.925781 
	C876.563171,182.377548 876.674744,191.834259 876.379883,201.279053 
	C876.323914,203.070602 874.801941,204.816391 873.053833,206.343643 
	C859.690674,206.281052 846.327454,206.218460 832.734619,205.329224 
	C832.530334,203.533295 832.162292,201.738541 832.149536,199.941238 
	C832.086670,191.121048 832.158813,182.299927 832.103760,173.479630 
	C832.059509,166.381134 829.310181,163.550262 822.646301,163.545151 
	C815.723877,163.539841 813.099731,166.155075 813.091614,173.271942 
	C813.059631,201.231674 813.051636,229.191452 813.062927,257.151215 
	C813.065674,263.929108 815.771301,266.628937 822.336670,266.586365 
	C829.381165,266.540680 832.075928,263.940308 832.105164,257.036560 
	C832.145996,247.383957 832.231262,237.729691 832.090881,228.079147 
	C832.038574,224.485123 833.223572,223.090164 836.977112,223.144958 
	C848.457581,223.312561 859.943787,223.249481 871.425171,223.089462 
	C875.276855,223.035782 876.728638,224.432617 876.648560,228.365021 
	C876.445190,238.346268 876.489258,248.335663 876.620972,258.319336 
	C876.689514,263.519562 879.144775,266.059265 884.012695,266.615021 
	C890.544983,267.360718 893.824158,265.409912 895.496948,259.102814 
	C895.426697,247.685699 895.356506,236.268570 895.579102,223.975800 
	C895.486206,219.030380 895.393311,214.084961 895.533997,208.287247 
	C895.447205,196.477631 895.360413,184.667999 895.548645,172.452560 
	C895.607056,172.091736 895.491699,171.799469 895.349731,171.292679 
M1005.262634,196.701920 
	C1005.262634,196.701920 1005.377686,196.495850 1004.923401,195.951340 
	C995.443665,192.890289 991.030945,196.063416 991.025513,205.941803 
	C991.016174,223.035660 990.931580,240.130142 991.081116,257.222595 
	C991.101318,259.532806 992.293762,261.832764 993.195129,264.815796 
	C1003.137939,269.635681 1009.038086,266.016663 1009.025269,255.133667 
	C1009.013489,245.138565 1008.959229,235.142487 1009.075623,225.148621 
	C1009.159424,217.956177 1013.010986,212.346725 1018.586914,210.840103 
	C1027.710449,208.374969 1034.588135,213.926178 1034.798096,224.319031 
	C1035.026733,235.642151 1034.829712,246.973251 1034.923584,258.299988 
	C1034.972168,264.166870 1037.327759,266.481201 1043.069824,266.694275 
	C1049.695801,266.940125 1052.658936,264.212982 1052.687012,257.577362 
	C1052.732910,246.749985 1052.628784,235.922012 1052.653442,225.094437 
	C1052.666260,219.441635 1054.300171,214.501907 1059.735107,211.778732 
	C1068.820801,207.226349 1077.822632,213.217422 1078.026001,224.140778 
	C1078.239868,235.631073 1077.996216,247.129181 1078.093140,258.622681 
	C1078.137695,263.906769 1080.875854,266.504059 1086.139771,266.740082 
	C1092.065430,267.005768 1095.766968,264.798431 1095.805054,259.835327 
	C1095.916138,245.357758 1096.312012,230.810974 1095.110352,216.415329 
	C1093.961304,202.649078 1083.340698,194.353683 1069.491577,194.078888 
	C1060.617065,193.902817 1053.474609,197.461990 1047.552246,204.102036 
	C1042.471313,197.794006 1036.139282,194.817200 1028.692017,194.128845 
	C1020.983948,193.416397 1014.398560,196.153336 1008.737183,201.263412 
	C1007.931091,199.962677 1007.328125,198.989609 1006.654541,197.489731 
	C1006.247253,197.172577 1005.839966,196.855423 1005.262634,196.701920 
M328.690552,260.719055 
	C328.690552,260.719055 328.716675,260.752869 329.013031,261.421143 
	C336.015350,271.668365 336.633179,282.748718 328.343018,292.883118 
	C317.202881,306.501526 304.570923,318.889618 292.886230,332.077789 
	C288.664948,336.842194 283.929596,337.852722 278.024994,335.893402 
	C272.848694,330.975922 267.355133,326.347015 262.563507,321.079620 
	C253.200943,310.787354 243.559387,300.634064 235.317337,289.474884 
	C229.102768,281.060791 230.796738,269.609711 237.149033,262.093506 
	C244.112213,253.854431 254.455551,250.862534 264.550415,254.742859 
	C268.545715,256.278625 272.105255,258.947998 276.241089,261.317749 
	C274.768188,256.327759 273.979919,251.179489 271.770477,246.738251 
	C268.238098,239.637924 263.559570,233.116638 259.778351,226.127243 
	C258.110901,223.045044 257.455719,219.415237 256.268188,215.813370 
	C280.704987,212.518295 287.207428,208.164658 290.640533,193.623550 
	C294.097290,187.408066 293.710999,184.623978 288.549530,181.464050 
	C287.645142,181.046997 286.776886,180.503784 285.830719,180.232498 
	C276.920288,177.677719 270.265106,172.898010 268.517548,163.091599 
	C268.349274,162.147385 267.736267,161.268661 267.265381,160.394180 
	C255.355774,138.275726 218.339233,133.284668 201.219238,152.001602 
	C194.217514,159.656494 188.416794,168.505554 182.738510,177.245850 
	C177.977753,184.573944 178.938690,193.303787 184.154465,199.573563 
	C185.722504,201.458481 187.545547,203.131256 188.729309,205.220688 
	C188.830200,206.152924 188.931091,207.085159 188.842407,208.691711 
	C177.846466,227.768555 168.164719,247.454590 162.606842,268.863525 
	C156.529404,292.273895 155.562271,315.496582 166.740387,337.949310 
	C168.043457,340.566650 168.987869,343.362610 169.302765,346.222229 
	C145.433624,351.244934 121.866844,359.967590 116.718605,365.861694 
	C148.837830,356.939728 181.468552,353.037506 214.314728,350.642792 
	C228.225082,349.628632 242.167023,349.047791 256.917389,348.470856 
	C258.599518,348.348633 260.281616,348.226410 262.735046,348.360260 
	C324.995911,347.354767 386.799927,351.465637 447.816681,365.087250 
	C432.876068,356.597229 416.728912,351.647278 400.843109,348.035522 
	C405.369354,342.196838 410.391968,337.149200 413.699158,331.155090 
	C420.682617,318.497925 421.924744,304.940857 417.130157,291.086792 
	C416.010010,287.850067 414.085388,285.282867 410.188416,286.118561 
	C406.279572,286.956848 405.778961,290.240082 405.810760,293.541412 
	C405.823334,294.846191 406.500519,296.139893 406.544739,297.449829 
	C406.734344,303.063293 407.702087,308.843628 406.723633,314.263000 
	C404.716614,325.379089 398.993591,334.178955 386.714294,339.116974 
	C387.413666,336.800201 387.802338,335.546478 388.170624,334.286804 
	C390.120819,327.616333 392.933228,321.062958 393.864624,314.252625 
	C398.203857,282.523926 388.110748,255.872162 364.185272,234.618378 
	C361.173157,231.942642 360.452332,229.965210 362.438171,226.356400 
	C365.999207,219.885056 367.240448,212.697723 365.542664,205.531296 
	C363.030762,194.928268 359.832245,184.487686 356.906555,173.983368 
	C356.684509,173.186157 356.354523,172.409607 355.995239,171.661621 
	C353.976410,167.458633 351.386871,166.936157 348.464874,170.484131 
	C345.828979,173.684677 343.255341,177.045715 341.338440,180.695328 
	C339.743378,183.732239 337.860077,184.471466 334.635529,184.237274 
	C325.373199,183.564545 317.011017,185.884186 310.894623,193.324997 
	C307.916840,196.947601 304.448883,198.724243 299.823975,199.123550 
	C298.218323,199.262161 295.794739,200.739883 295.375824,202.106140 
	C291.917969,213.382874 294.463318,223.268127 303.865082,230.616867 
	C307.400116,233.379944 308.895660,235.887329 306.533600,240.293320 
	C306.533600,240.293320 306.497772,240.750549 306.027039,241.192993 
	C304.435120,243.228821 302.932983,245.343307 301.232574,247.284073 
	C297.732727,251.278610 294.126923,255.180283 290.564758,259.120178 
	C290.822968,259.716003 291.081177,260.311859 291.339386,260.907684 
	C304.003510,251.314911 316.484589,249.687943 328.690552,260.719055 
M503.130066,132.026260 
	C503.111664,199.412918 503.086060,266.799591 503.110565,334.186249 
	C503.111267,336.152222 503.640564,338.118011 504.132751,340.442596 
	C504.439270,340.311829 504.745758,340.181091 505.375458,339.278656 
	C505.549042,337.470642 505.872192,335.662781 505.874207,333.854553 
	C505.914368,298.234039 505.946320,262.613464 505.918945,226.992966 
	C505.894409,195.036652 505.796234,163.080414 505.816772,130.437088 
	C505.269104,130.028946 504.721466,129.620804 504.173828,129.212646 
	C503.855957,129.844208 503.538086,130.475769 503.130066,132.026260 
M169.152664,138.691559 
	C158.375778,147.345688 147.584793,155.982315 136.829086,164.662689 
	C132.626114,168.054688 131.822021,171.815903 134.519592,174.837891 
	C136.975571,177.589233 140.810181,177.298187 144.716064,174.254944 
	C187.936935,140.579926 231.166565,106.916092 274.417450,73.279648 
	C280.352020,68.664330 282.006897,68.681122 288.050842,73.145721 
	C314.967712,93.029175 341.896332,112.897018 368.756470,132.856979 
	C387.069122,146.465256 405.270386,160.223328 423.533234,173.898727 
	C427.871674,177.147369 431.983276,177.068146 433.895233,173.553314 
	C436.081970,169.533417 434.214691,166.694702 430.910248,164.200211 
	C418.285217,154.669540 405.772583,144.989746 393.123108,135.491959 
	C390.484314,133.510635 389.317505,131.362732 389.381378,127.967155 
	C389.594543,116.640022 389.529083,105.306076 389.446869,93.975647 
	C389.409851,88.875343 387.511749,87.018227 382.493744,86.934021 
	C377.496094,86.850151 372.495178,86.884109 367.496704,86.946907 
	C361.597595,87.021019 360.246307,88.423889 360.198761,94.464760 
	C360.158875,99.531090 360.190582,104.597992 360.190582,110.535751 
	C358.425903,109.355789 357.611023,108.858337 356.846497,108.292793 
	C335.830444,92.746246 314.800140,77.218864 293.816010,61.629303 
	C283.521912,53.981583 278.226105,53.938416 267.928986,61.928123 
	C235.172089,87.344833 202.444916,112.799866 169.152664,138.691559 
M574.951111,264.832916 
	C575.056152,263.297211 575.161194,261.761505 575.293457,259.827942 
	C595.939819,273.842041 617.210449,266.150238 626.905579,255.720734 
	C639.860413,241.784683 641.587708,217.663879 631.750366,201.811813 
	C627.053040,194.242432 620.509949,188.675049 612.065979,185.668289 
	C598.800293,180.944611 586.356995,182.876038 575.137817,191.436279 
	C571.420044,184.686020 567.458374,182.821228 561.326233,184.452652 
	C556.200928,185.816223 554.946838,187.999771 554.947571,195.729523 
	C554.950623,226.212997 554.944092,256.696503 554.994751,287.179901 
	C555.005676,293.753662 558.084900,296.862030 564.284668,296.899445 
	C571.159790,296.940918 574.862244,293.677979 574.950073,287.247925 
	C575.047913,280.086456 574.965515,272.922577 574.951111,264.832916 
M649.491821,210.208801 
	C646.408630,220.683929 646.269043,231.064926 649.831848,241.530807 
	C659.613159,270.264038 696.395630,273.549927 714.664490,259.861023 
	C720.267822,255.662476 721.596252,250.747116 718.481689,246.343079 
	C715.055786,241.498795 710.725830,241.398865 704.181091,245.267700 
	C700.823608,247.252411 697.056702,248.931046 693.261230,249.718536 
	C679.853760,252.500351 668.163513,242.479858 668.518372,231.884018 
	C670.250549,231.884018 672.024353,231.884430 673.798157,231.883942 
	C687.281860,231.880188 700.765808,231.920914 714.249146,231.851303 
	C719.957275,231.821823 723.557800,229.058029 723.949524,223.946655 
	C725.554993,203.002792 713.354065,184.604706 689.176819,183.271973 
	C670.710815,182.254089 657.551941,191.506287 649.491821,210.208801 
M960.422974,264.025696 
	C971.812378,258.096863 978.738525,248.951294 980.614075,236.124329 
	C983.416443,216.958801 971.971069,198.814865 954.067749,194.096024 
	C935.287476,189.146057 915.912231,198.463516 909.630371,216.018982 
	C904.271912,230.993591 906.175476,245.222061 917.679565,256.688843 
	C929.651855,268.622375 944.184143,270.075531 960.422974,264.025696 
M1168.455078,253.500183 
	C1166.485840,245.774551 1161.859863,243.778595 1155.333008,248.172501 
	C1149.773193,251.915405 1143.855713,253.242493 1137.333984,252.007309 
	C1129.436768,250.511612 1123.917603,244.311615 1124.077271,236.739349 
	C1137.027100,236.739349 1149.990112,236.787308 1162.952393,236.719025 
	C1169.390381,236.685120 1172.332031,233.921906 1172.354248,227.763885 
	C1172.404175,213.911774 1166.887573,202.870590 1154.037354,197.142548 
	C1141.404419,191.511368 1128.786255,192.955246 1117.938721,201.911316 
	C1103.316895,213.983459 1100.799316,237.809372 1111.986938,253.563568 
	C1122.271240,268.045746 1144.699585,272.533905 1160.863281,262.867523 
	C1163.976440,261.005768 1165.900146,257.154968 1168.455078,253.500183 
M786.467773,189.252899 
	C783.747559,184.262238 778.973389,185.141052 774.549988,185.134552 
	C763.889709,185.118881 763.889709,185.142914 763.904114,174.743683 
	C763.905029,174.077072 763.923828,173.409836 763.901550,172.743973 
	C763.693604,166.518188 760.029297,163.065033 753.649475,163.074051 
	C747.425903,163.082855 744.133728,166.204575 743.921936,172.522720 
	C743.789429,176.477264 743.897278,180.439850 743.897278,184.704407 
	C741.879761,184.853958 740.434387,185.007217 738.985229,185.060516 
	C732.727966,185.290771 729.964417,187.925278 729.903442,193.762680 
	C729.837463,200.076767 732.333862,202.836472 739.056152,202.734467 
	C743.221985,202.671234 744.016968,204.336273 743.967468,208.040848 
	C743.809448,219.870239 743.601257,231.720871 744.167603,243.527069 
	C744.390076,248.165283 745.953735,253.035889 748.049805,257.229218 
	C753.328247,267.789215 770.427124,270.094482 782.481079,265.146820 
	C787.621338,263.036987 790.165955,257.625061 788.429077,253.038269 
	C786.593689,248.191284 783.345215,246.903992 777.076050,248.539307 
	C768.984863,250.649902 764.024780,246.934143 763.927246,238.543732 
	C763.834229,230.545364 763.890381,222.545242 763.888245,214.545883 
	C763.885132,202.946106 763.887939,202.946167 775.232361,202.875809 
	C775.732300,202.872711 776.232178,202.868561 776.732117,202.861542 
	C786.085754,202.730225 788.832214,199.215225 786.467773,189.252899 
M295.467194,129.088211 
	C288.421509,129.932358 284.399170,132.609634 284.136841,138.642548 
	C283.940643,143.154480 284.600220,148.884232 287.260315,152.104218 
	C293.615570,159.797043 301.378204,166.327225 308.643646,173.396042 
	C314.672089,168.169571 320.248779,163.925232 325.070404,158.949234 
	C328.344452,155.570312 331.157288,151.437546 333.108429,147.155319 
	C336.066772,140.662552 333.302887,133.540741 327.500061,130.379181 
	C322.229218,127.507462 315.684540,129.415497 311.340820,135.052628 
	C310.596313,136.018784 309.720947,136.884109 308.906036,137.796005 
	C309.036255,137.281754 309.166504,136.767487 309.296722,136.253235 
	C304.956787,133.865173 300.616882,131.477112 295.467194,129.088211 
M645.775879,308.624878 
	C640.998901,305.189880 637.406799,308.380981 633.811707,311.023804 
	C633.105042,310.446838 632.580688,310.049530 632.090759,309.613617 
	C629.373474,307.195862 626.469788,306.227936 622.980713,308.075531 
	C619.312866,310.017731 617.842163,313.406128 619.106323,316.854065 
	C620.407166,320.401886 622.587219,324.106476 625.420776,326.527344 
	C635.772095,335.371185 632.599121,335.070740 641.747986,326.805542 
	C642.981750,325.691010 644.291016,324.648285 645.433777,323.447205 
	C649.654480,319.011108 649.944641,314.083221 645.775879,308.624878 
M1084.573364,323.795319 
	C1087.407715,326.351807 1090.094116,329.109375 1093.153442,331.360107 
	C1094.284302,332.192108 1096.941650,332.600739 1097.789917,331.884460 
	C1101.823120,328.478668 1106.015259,325.020782 1109.127319,320.822754 
	C1113.442383,315.001740 1110.238159,307.408264 1103.690674,307.391296 
	C1101.028564,307.384399 1098.361206,309.398560 1095.507446,310.570709 
	C1089.768188,306.458344 1086.649170,306.057648 1083.378174,309.186035 
	C1080.112915,312.309021 1080.203613,317.135010 1083.623413,322.349060 
	C1083.805908,322.627319 1083.971313,322.916809 1084.573364,323.795319 
M1012.927734,322.247894 
	C1011.990967,319.758118 1010.968567,317.296539 1010.138428,314.771729 
	C1008.998657,311.305237 1006.977783,309.908447 1002.935791,311.644989 
	C1002.935791,317.298401 1002.851074,323.064056 1003.015076,328.822662 
	C1003.044006,329.839661 1004.111023,330.827087 1004.698669,331.828156 
	C1005.377625,330.753448 1006.533386,329.724609 1006.642151,328.595001 
	C1006.921204,325.696136 1006.735413,322.752563 1006.735413,319.826843 
	C1008.875977,322.243042 1009.896729,324.959137 1011.156982,327.559113 
	C1011.894897,329.081482 1013.014832,330.418671 1013.962952,331.839172 
	C1015.060425,330.350098 1016.362000,328.967346 1017.206055,327.346313 
	C1018.385681,325.080627 1019.223816,322.637207 1020.208069,320.269836 
	C1021.478333,323.089386 1021.532104,325.724548 1021.956421,328.298584 
	C1022.155701,329.507141 1023.068970,330.597992 1023.658752,331.742218 
	C1024.303345,330.718048 1025.462524,329.714325 1025.504272,328.666138 
	C1025.696167,323.845367 1025.754761,319.000458 1025.438232,314.192047 
	C1025.362671,313.044159 1023.607422,311.075867 1022.722168,311.128448 
	C1021.362183,311.209137 1019.562500,312.426544 1018.884033,313.671143 
	C1017.464478,316.275269 1016.744629,319.252289 1015.518127,321.977478 
	C1015.276978,322.513367 1014.046814,322.604126 1012.927734,322.247894 
M862.411804,329.946350 
	C863.078430,329.206207 863.863647,328.541626 864.391479,327.713013 
	C866.878662,323.808350 866.708923,317.752258 863.763184,314.070404 
	C860.595581,310.111237 856.256409,309.389832 851.572754,310.598022 
	C846.628967,311.873230 844.184509,315.179443 843.719116,320.300110 
	C843.315857,324.736969 844.844849,328.416626 848.292480,330.700348 
	C852.598267,333.552460 857.374695,333.653381 862.411804,329.946350 
M726.232178,322.302948 
	C727.710876,329.412598 731.717346,332.953522 737.975708,332.682037 
	C744.155396,332.413940 748.535278,328.390656 748.959778,322.592072 
	C749.454285,315.838776 745.289795,310.642792 738.955505,310.109711 
	C731.671448,309.496765 727.201355,313.498230 726.232178,322.302948 
M986.615601,310.554749 
	C979.929199,309.623413 975.566711,311.250244 973.354736,315.761688 
	C971.108337,320.343506 971.417297,324.965759 974.662720,328.869232 
	C977.818237,332.664612 982.162659,333.536041 986.873596,332.036652 
	C991.699646,330.500641 994.358276,326.938416 994.667175,322.096252 
	C995.006226,316.781525 992.500427,312.834930 986.615601,310.554749 
M715.255249,329.925354 
	C719.716614,325.117249 720.427246,319.250793 717.111328,314.605011 
	C714.795288,311.360321 705.822083,308.795471 701.976562,310.545227 
	C701.069885,310.957764 700.192505,312.507874 700.151672,313.567535 
	C699.952942,318.712891 699.913757,323.875183 700.142090,329.017090 
	C700.187134,330.030823 701.702332,331.853607 702.464539,331.815216 
	C706.535706,331.610229 710.583069,330.932953 715.255249,329.925354 
M956.366028,319.090759 
	C954.433838,319.090759 952.501648,319.090759 950.268188,319.090759 
	C950.163025,316.795502 950.275635,315.135040 949.950684,313.565186 
	C949.722717,312.463898 948.898254,311.486115 948.340149,310.453156 
	C947.617798,311.548920 946.321838,312.619171 946.271790,313.744812 
	C946.050659,318.716949 946.064697,323.710663 946.290710,328.683044 
	C946.341248,329.796417 947.589478,330.855377 948.286316,331.939362 
	C948.903748,330.696167 949.799744,329.509369 950.065918,328.195068 
	C950.377014,326.658813 950.138733,325.011353 950.138733,323.109009 
	C953.564880,323.109009 956.452209,323.109009 959.989990,323.109009 
	C959.989990,325.358704 959.753784,327.342224 960.086731,329.225067 
	C960.261047,330.210724 961.434509,331.019684 962.156677,331.908478 
	C962.720276,331.041565 963.743958,330.189056 963.771729,329.305328 
	C963.933044,324.161591 963.984497,319.005371 963.772034,313.865875 
	C963.724060,312.706207 962.480957,311.595947 961.788086,310.462952 
	C961.183105,311.608612 960.416626,312.700134 960.010437,313.912354 
	C959.377075,315.802704 961.273682,318.963257 956.366028,319.090759 
M912.637146,312.579681 
	C912.492981,312.116180 912.374084,311.258087 912.200806,311.246948 
	C907.978149,310.975861 903.704346,310.427246 899.564209,310.937836 
	C898.821960,311.029358 898.524963,315.549744 898.216614,318.049225 
	C898.014221,319.689331 898.150818,321.372498 898.152649,323.036377 
	C898.162720,332.056519 898.164978,332.095795 907.133301,332.016602 
	C909.121216,331.999084 911.105652,331.597015 913.091736,331.372009 
	C913.061401,330.675415 913.031006,329.978851 913.000671,329.282257 
	C910.152222,328.950348 907.247070,328.847504 904.485535,328.164276 
	C903.497742,327.919861 902.406616,326.345490 902.227234,325.238037 
	C902.119812,324.575043 903.564697,323.191406 904.528076,322.930695 
	C906.088196,322.508453 907.898071,323.015259 909.462585,322.601196 
	C910.436035,322.343597 911.151733,321.112427 911.983093,320.318207 
	C911.773865,319.915375 911.564697,319.512543 911.355469,319.109711 
	C909.224243,319.109711 907.044556,319.375763 904.981628,319.000458 
	C903.908081,318.805145 903.040466,317.478241 902.079834,316.662506 
	C903.058533,315.786072 903.915222,314.413422 905.041382,314.136261 
	C907.398865,313.556152 909.898438,313.553253 912.637146,312.579681 
M684.363708,311.245117 
	C682.975891,311.425385 680.670105,311.168243 680.343262,311.854126 
	C677.326843,318.184204 674.652344,324.677246 671.878479,331.122894 
	C672.263794,331.464508 672.649109,331.806091 673.034485,332.147675 
	C674.167908,331.575378 675.635986,331.280487 676.378784,330.384369 
	C680.304504,325.648254 684.594666,325.620667 688.164917,330.244507 
	C688.954651,331.267395 690.685791,331.563416 691.983459,332.194122 
	C692.248108,331.794983 692.512756,331.395874 692.777466,330.996765 
	C690.104370,324.615570 687.431274,318.234406 684.363708,311.245117 
M1034.908569,323.460358 
	C1035.218994,326.186737 1035.124390,331.127563 1035.907227,331.270721 
	C1040.155273,332.047577 1044.619751,331.639496 1049.009766,331.639496 
	C1049.029663,330.919250 1049.049438,330.199005 1049.069336,329.478790 
	C1046.821411,329.279663 1044.492188,329.371857 1042.355103,328.775513 
	C1041.007690,328.399475 1039.947632,326.993591 1038.758667,326.049713 
	C1039.826538,324.962128 1040.719116,323.539612 1042.004150,322.867462 
	C1043.813965,321.920837 1045.914551,321.530396 1047.890869,320.902191 
	C1045.912842,320.305695 1043.846558,319.900940 1041.988403,319.044373 
	C1040.777344,318.486084 1039.869019,317.271057 1038.825073,316.350281 
	C1039.842529,315.566650 1040.762817,314.342468 1041.897705,314.092560 
	C1044.150513,313.596497 1046.521484,313.637543 1048.843628,313.456604 
	C1048.842773,312.936432 1048.841919,312.416290 1048.841064,311.896118 
	C1044.692383,308.541840 1039.841797,311.296387 1034.907349,310.639313 
	C1034.907349,314.898895 1034.907349,318.688843 1034.908569,323.460358 
M764.500916,322.958374 
	C768.729980,323.155701 771.966980,321.442657 772.285522,317.090546 
	C772.616638,312.566254 769.420166,310.747406 765.224731,310.522430 
	C763.899536,310.451355 762.570435,310.425201 761.249817,310.304779 
	C758.280151,310.033966 757.024353,311.240784 757.142456,314.323975 
	C757.320435,318.971588 757.053528,323.637512 757.274231,328.281464 
	C757.339417,329.653107 758.410950,330.976898 759.021362,332.322632 
	C759.690735,331.032379 760.588806,329.806671 760.975464,328.436646 
	C761.542297,326.428131 759.988037,323.471100 764.500916,322.958374 
M887.279724,322.807526 
	C888.349854,320.019714 889.555237,317.273163 890.424377,314.424072 
	C890.777344,313.267395 890.398438,311.887451 890.352478,310.609100 
	C889.145142,311.415710 887.359009,311.952515 886.834595,313.077454 
	C884.957581,317.103973 883.508301,321.329803 881.766357,325.817352 
	C874.411255,310.760101 874.411255,310.760101 871.840393,311.201965 
	C874.281921,317.610687 876.623657,323.945007 879.165222,330.198151 
	C879.492920,331.004303 880.892395,331.889343 881.730164,331.829254 
	C882.570862,331.768921 883.595581,330.716675 884.071594,329.843872 
	C885.180786,327.810486 886.008667,325.623596 887.279724,322.807526 
M788.652832,328.899994 
	C788.652832,324.126190 788.652832,319.352386 788.652832,314.798553 
	C791.239746,314.071930 793.098511,313.549835 795.722473,312.812805 
	C789.267883,309.190125 779.990479,309.631531 778.192688,313.451263 
	C780.343750,313.770721 782.366638,314.071136 784.886108,314.445312 
	C784.886108,319.384796 784.813110,324.175232 784.947571,328.959839 
	C784.974548,329.920776 785.790039,330.859528 786.242065,331.808533 
	C787.022095,331.126038 787.802063,330.443542 788.652832,328.899994 
M832.544189,328.883453 
	C830.134277,329.131409 828.818054,328.381775 828.912659,325.620056 
	C829.054749,321.474030 829.013916,317.313263 828.810791,313.170563 
	C828.767212,312.281494 827.699463,311.442657 827.103516,310.580688 
	C826.434570,311.351898 825.205566,312.108826 825.185425,312.896606 
	C825.025940,319.131500 825.096680,325.372284 825.096680,332.204437 
	C829.845642,331.949554 833.835266,331.735413 837.824890,331.521271 
	C837.832275,330.859619 837.839661,330.197968 837.847046,329.536316 
	C836.374268,329.319763 834.901428,329.103180 832.544189,328.883453 
M289.493561,262.525635 
	C289.493561,262.525635 289.495361,262.487671 289.493561,262.525635 
z"/>
<path fill="#B69B80" opacity="1.000000" stroke="none" 
	d="
M189.251770,204.901230 
	C187.545547,203.131256 185.722504,201.458481 184.154465,199.573563 
	C178.938690,193.303787 177.977753,184.573944 182.738510,177.245850 
	C188.416794,168.505554 194.217514,159.656494 201.219238,152.001602 
	C218.339233,133.284668 255.355774,138.275726 267.265381,160.394180 
	C267.736267,161.268661 268.349274,162.147385 268.517548,163.091599 
	C270.265106,172.898010 276.920288,177.677719 285.830719,180.232498 
	C286.776886,180.503784 287.645142,181.046997 288.543274,181.989670 
	C287.350891,183.825851 284.909698,185.661316 285.199615,186.354507 
	C286.347504,189.099045 288.350403,191.485931 290.036346,194.005417 
	C287.207428,208.164658 280.704987,212.518295 256.268188,215.813370 
	C257.455719,219.415237 258.110901,223.045044 259.778351,226.127243 
	C263.559570,233.116638 268.238098,239.637924 271.770477,246.738251 
	C273.979919,251.179489 274.768188,256.327759 276.241089,261.317749 
	C272.105255,258.947998 268.545715,256.278625 264.550415,254.742859 
	C254.455551,250.862534 244.112213,253.854431 237.149033,262.093506 
	C230.796738,269.609711 229.102768,281.060791 235.317337,289.474884 
	C243.559387,300.634064 253.200943,310.787354 262.563507,321.079620 
	C267.355133,326.347015 272.848694,330.975922 277.644043,336.365112 
	C267.816925,337.159241 258.370728,337.481689 248.486099,337.794006 
	C245.696564,337.883362 243.345459,337.982788 240.533508,338.036743 
	C235.049484,338.339905 230.026306,338.688568 224.541565,339.005432 
	C215.052139,339.979431 206.024246,340.985168 196.579895,341.969116 
	C189.774612,342.962555 183.385803,343.977722 176.622559,344.998627 
	C174.831421,345.378662 173.414703,345.752960 171.679077,346.136536 
	C170.939636,346.122498 170.519089,346.099121 170.098557,346.075745 
	C168.987869,343.362610 168.043457,340.566650 166.740387,337.949310 
	C155.562271,315.496582 156.529404,292.273895 162.606842,268.863525 
	C168.164719,247.454590 177.846466,227.768555 189.341797,208.278687 
	C191.442154,208.240402 193.066681,208.535660 194.640244,209.002716 
	C205.419724,212.202286 215.663177,208.148849 218.751892,197.464676 
	C221.371490,188.403122 221.400055,178.592072 222.535995,169.107986 
	C222.548294,169.005295 222.033218,168.839417 221.329956,168.482697 
	C220.258728,175.770218 219.411453,182.948898 218.116196,190.045807 
	C215.570358,203.994843 206.022675,209.681122 192.643631,205.504318 
	C191.556229,205.164841 190.384384,205.095886 189.251770,204.901230 
M258.574341,177.266983 
	C258.095428,176.616119 257.616486,175.965256 257.137543,175.314392 
	C253.118362,179.397797 248.712219,177.976105 243.796341,175.299271 
	C247.167236,181.670273 252.488297,182.304871 258.574341,177.266983 
M261.738342,203.158600 
	C267.231232,208.377747 274.187927,209.687225 278.465363,207.401031 
	C273.687683,205.741562 267.845673,203.707275 261.985779,201.725784 
	C261.897430,201.695908 261.587616,202.320938 261.738342,203.158600 
z"/>
<path fill="#4D473B" opacity="1.000000" stroke="none" 
	d="
M176.996994,344.992889 
	C183.385803,343.977722 189.774612,342.962555 196.747772,342.284180 
	C199.237091,343.356171 201.133163,344.681915 203.048752,344.710724 
	C207.898727,344.783630 212.761719,344.333099 217.611389,343.980469 
	C221.882050,343.669922 226.141724,343.208130 231.281372,342.732117 
	C228.487442,341.087799 226.745270,340.062500 225.003113,339.037201 
	C230.026306,338.688568 235.049484,338.339905 240.467316,338.376892 
	C239.660843,339.800903 238.459747,340.839203 237.258652,341.877502 
	C240.169693,342.991882 242.720230,342.985413 245.270752,342.993439 
	C248.969055,343.005096 250.389801,341.423157 248.924515,337.804108 
	C258.370728,337.481689 267.816925,337.159241 277.720703,336.679749 
	C283.929596,337.852722 288.664948,336.842194 292.886230,332.077789 
	C304.570923,318.889618 317.202881,306.501526 328.343018,292.883118 
	C336.633179,282.748718 336.015350,271.668365 329.264465,260.958862 
	C332.321320,260.996429 335.954712,262.095215 336.666687,258.335632 
	C337.203003,255.503647 336.608063,251.411743 334.805573,249.464844 
	C332.845947,247.348206 328.944000,246.942719 325.822906,246.012833 
	C322.662659,245.071289 321.836670,243.327011 322.360992,240.041336 
	C322.982635,236.145615 323.259064,232.063065 322.751709,228.183548 
	C322.547943,226.625290 319.952606,224.439377 318.280487,224.280701 
	C316.641510,224.125183 314.242340,225.804688 313.170746,227.362518 
	C311.735046,229.449768 311.255707,232.194855 310.073700,235.465591 
	C310.487030,236.089783 311.528778,237.663010 313.075287,239.998520 
	C310.442139,239.998520 308.663544,239.998520 306.884949,239.998520 
	C308.895660,235.887329 307.400116,233.379944 303.865082,230.616867 
	C294.463318,223.268127 291.917969,213.382874 295.375824,202.106140 
	C295.794739,200.739883 298.218323,199.262161 299.823975,199.123550 
	C304.448883,198.724243 307.916840,196.947601 310.894623,193.324997 
	C317.011017,185.884186 325.373199,183.564545 334.635529,184.237274 
	C337.860077,184.471466 339.743378,183.732239 341.338440,180.695328 
	C343.255341,177.045715 345.828979,173.684677 348.464874,170.484131 
	C351.386871,166.936157 353.976410,167.458633 355.995239,171.661621 
	C356.354523,172.409607 356.684509,173.186157 356.906555,173.983368 
	C359.832245,184.487686 363.030762,194.928268 365.542664,205.531296 
	C367.240448,212.697723 365.999207,219.885056 362.438171,226.356400 
	C360.452332,229.965210 361.173157,231.942642 364.185272,234.618378 
	C388.110748,255.872162 398.203857,282.523926 393.864624,314.252625 
	C392.933228,321.062958 390.120819,327.616333 388.170624,334.286804 
	C387.802338,335.546478 387.413666,336.800201 386.714294,339.116974 
	C398.993591,334.178955 404.716614,325.379089 406.723633,314.263000 
	C407.702087,308.843628 406.734344,303.063293 406.544739,297.449829 
	C406.500519,296.139893 405.823334,294.846191 405.810760,293.541412 
	C405.778961,290.240082 406.279572,286.956848 410.188416,286.118561 
	C414.085388,285.282867 416.010010,287.850067 417.130157,291.086792 
	C421.924744,304.940857 420.682617,318.497925 413.699158,331.155090 
	C410.391968,337.149200 405.369354,342.196838 400.843109,348.035522 
	C416.728912,351.647278 432.876068,356.597229 447.816681,365.087250 
	C386.799927,351.465637 324.995911,347.354767 262.367493,347.828888 
	C262.259369,343.158966 265.458038,344.330322 267.888672,343.906586 
	C268.852631,343.738556 269.686615,342.825012 270.579742,342.250854 
	C270.016479,341.550049 269.546478,340.353485 268.875153,340.227295 
	C263.708832,339.255798 258.450043,337.717651 252.677277,341.430511 
	C258.183044,342.200470 256.643860,345.413239 256.094604,348.270020 
	C242.167023,349.047791 228.225082,349.628632 214.314728,350.642792 
	C181.468552,353.037506 148.837830,356.939728 116.718605,365.861694 
	C121.866844,359.967590 145.433624,351.244934 169.700653,346.148987 
	C170.519089,346.099121 170.939636,346.122498 171.633942,346.475708 
	C171.358963,347.932007 170.810196,349.058502 169.789230,351.154236 
	C175.080551,351.154236 179.665436,351.154236 184.250320,351.154236 
	C181.408798,349.572021 176.261826,350.818970 176.996994,344.992889 
M367.684662,242.880005 
	C365.619751,241.963837 363.554810,241.047653 361.210114,240.007355 
	C362.230133,235.085663 359.759277,232.357727 354.979553,231.304688 
	C349.048889,238.167450 349.595398,240.283966 357.500641,243.215347 
	C358.627563,243.633240 359.602600,245.505127 359.912994,246.871063 
	C360.641602,250.077148 360.598358,253.473145 361.456787,256.632172 
	C363.242584,263.204132 362.206390,264.907959 355.288849,264.973602 
	C343.931915,265.081390 345.054810,263.382904 345.000977,276.011383 
	C344.999573,276.343903 344.865875,276.784180 345.027771,276.991516 
	C346.089233,278.350861 347.046112,280.567413 348.352539,280.810791 
	C351.915344,281.474518 352.978424,283.344971 353.058746,286.650391 
	C353.126556,289.440704 352.896332,292.687256 354.204773,294.900055 
	C356.547729,298.862396 359.881470,302.259186 362.982605,305.730255 
	C363.427216,306.227905 365.512360,306.196106 365.765564,305.770752 
	C367.037964,303.633301 368.353394,301.378510 368.919800,298.990814 
	C370.559570,292.078278 370.156281,284.491547 376.143829,279.126526 
	C376.773285,278.562561 376.893066,277.329437 377.065338,276.373627 
	C377.678345,272.971710 378.934814,269.486298 378.616577,266.159821 
	C378.050415,260.241241 378.782715,253.241058 372.997650,249.530716 
	C370.281616,247.788696 369.059814,246.027802 367.684662,242.880005 
M350.890259,196.668503 
	C351.263885,199.289398 351.375153,201.986847 352.109100,204.502625 
	C352.552826,206.023605 353.962463,207.262817 354.938110,208.628647 
	C355.957336,207.137634 357.164703,205.737930 357.944641,204.130783 
	C358.779419,202.410568 359.211517,200.494949 359.638733,199.208588 
	C357.676300,196.739014 355.592834,194.117096 352.908691,190.739273 
	C357.979553,190.031433 358.874695,188.353165 356.426483,185.275238 
	C355.993927,184.731400 356.036835,183.583435 356.229553,182.805984 
	C357.250153,178.688309 354.811310,176.467819 351.551605,175.592926 
	C348.634277,174.809937 346.729218,176.716064 345.889252,179.759247 
	C344.552979,184.600327 340.686951,186.196793 336.161072,187.038528 
	C331.720490,187.864441 327.233093,188.717606 322.977936,190.176331 
	C319.402985,191.401871 316.132568,193.515717 311.294891,195.960052 
	C315.782959,197.816040 319.553772,199.657852 323.512115,200.904175 
	C325.808685,201.627274 328.813110,200.666901 330.772064,201.763138 
	C333.588287,203.339081 334.823273,201.987305 336.122192,200.245438 
	C340.330444,194.602158 343.220123,193.675095 350.890259,196.668503 
M350.955292,343.334045 
	C349.771362,342.557251 348.637543,341.222015 347.393951,341.110504 
	C343.944275,340.801147 340.433258,340.800842 336.977142,341.070984 
	C334.696472,341.249207 330.031250,339.362701 332.307404,345.141479 
	C332.375031,345.313171 330.876282,346.101837 329.837036,346.779449 
	C333.717560,347.270447 337.609497,350.315826 340.026276,344.910858 
	C340.249084,344.412567 342.404449,344.960724 343.571533,344.664551 
	C346.014404,344.044678 348.749237,347.858917 350.955292,343.334045 
M300.975372,202.551575 
	C297.551270,204.803772 298.751099,207.476868 300.838135,209.554382 
	C301.499420,210.212631 303.771667,209.252563 305.306671,209.033081 
	C304.591614,206.767075 303.902435,204.491821 303.104156,202.255508 
	C303.049988,202.103699 302.175507,202.244675 300.975372,202.551575 
M318.628479,315.194855 
	C317.311981,316.198395 315.995483,317.201904 314.678986,318.205444 
	C315.136536,318.741852 315.594055,319.278259 316.051605,319.814697 
	C318.756165,320.152740 321.114899,320.108002 318.628479,315.194855 
M334.199860,303.461304 
	C335.403961,302.851624 336.608032,302.241943 337.812134,301.632263 
	C337.291382,301.118042 336.770660,300.603790 336.249939,300.089539 
	C335.391724,301.046631 334.533508,302.003723 334.199860,303.461304 
M187.523483,345.681549 
	C185.078339,345.881561 182.633194,346.081573 180.188049,346.281586 
	C180.201889,346.487579 180.215744,346.693604 180.229599,346.899597 
	C182.982468,346.899597 185.735336,346.899597 188.488205,346.899597 
	C188.399414,346.408844 188.310623,345.918121 187.523483,345.681549 
M386.210022,282.865967 
	C386.785614,282.022919 387.361206,281.179840 387.936798,280.336792 
	C387.468903,280.075562 387.001038,279.814331 386.533142,279.553101 
	C386.374420,280.432465 386.215729,281.311829 386.210022,282.865967 
M191.257080,347.998627 
	C191.407242,348.825134 191.557419,349.651611 191.707581,350.478119 
	C192.164108,350.304962 192.620651,350.131805 193.077179,349.958649 
	C192.615707,349.152435 192.154251,348.346252 191.257080,347.998627 
M388.715546,274.917694 
	C388.226776,274.971252 387.738007,275.024780 387.249237,275.078308 
	C387.361938,275.513947 387.474609,275.949554 387.587280,276.385193 
	C388.005157,276.090546 388.423035,275.795898 388.715546,274.917694 
M388.286896,287.452698 
	C388.011230,287.715424 387.735565,287.978149 387.459869,288.240845 
	C387.568695,288.355011 387.677551,288.469147 387.786377,288.583313 
	C388.062073,288.320282 388.337769,288.057251 388.286896,287.452698 
M302.587524,217.806198 
	C302.207153,217.801804 301.826752,217.797409 301.446381,217.793015 
	C301.444733,217.950836 301.432373,218.245804 301.442993,218.246643 
	C301.821442,218.276184 302.202026,218.278198 302.587524,217.806198 
M326.452484,207.713394 
	C326.715271,207.989075 326.975677,208.267349 327.254333,208.525894 
	C327.261475,208.532501 327.469238,208.322815 327.583435,208.213989 
	C327.320343,207.938278 327.057251,207.662567 326.452484,207.713394 
M234.826874,346.722839 
	C234.974579,346.615967 235.122269,346.509125 235.269974,346.402252 
	C235.065918,346.422974 234.861862,346.443695 234.826874,346.722839 
M313.423248,346.484283 
	C313.423248,346.484283 313.521912,346.428162 313.423248,346.484283 
z"/>
<path fill="#4C453A" opacity="1.000000" stroke="none" 
	d="
M169.429459,138.465820 
	C202.444916,112.799866 235.172089,87.344833 267.928986,61.928123 
	C278.226105,53.938416 283.521912,53.981583 293.816010,61.629303 
	C314.800140,77.218864 335.830444,92.746246 356.846497,108.292793 
	C357.611023,108.858337 358.425903,109.355789 360.190582,110.535751 
	C360.190582,104.597992 360.158875,99.531090 360.198761,94.464760 
	C360.246307,88.423889 361.597595,87.021019 367.496704,86.946907 
	C372.495178,86.884109 377.496094,86.850151 382.493744,86.934021 
	C387.511749,87.018227 389.409851,88.875343 389.446869,93.975647 
	C389.529083,105.306076 389.594543,116.640022 389.381378,127.967155 
	C389.317505,131.362732 390.484314,133.510635 393.123108,135.491959 
	C405.772583,144.989746 418.285217,154.669540 430.910248,164.200211 
	C434.214691,166.694702 436.081970,169.533417 433.895233,173.553314 
	C431.983276,177.068146 427.871674,177.147369 423.533234,173.898727 
	C405.270386,160.223328 387.069122,146.465256 368.756470,132.856979 
	C341.896332,112.897018 314.967712,93.029175 288.050842,73.145721 
	C282.006897,68.681122 280.352020,68.664330 274.417450,73.279648 
	C231.166565,106.916092 187.936935,140.579926 144.716064,174.254944 
	C140.810181,177.298187 136.975571,177.589233 134.519592,174.837891 
	C131.822021,171.815903 132.626114,168.054688 136.829086,164.662689 
	C147.584793,155.982315 158.375778,147.345688 169.429459,138.465820 
z"/>
<path fill="#D2A799" opacity="1.000000" stroke="none" 
	d="
M574.956299,265.296326 
	C574.965515,272.922577 575.047913,280.086456 574.950073,287.247925 
	C574.862244,293.677979 571.159790,296.940918 564.284668,296.899445 
	C558.084900,296.862030 555.005676,293.753662 554.994751,287.179901 
	C554.944092,256.696503 554.950623,226.212997 554.947571,195.729523 
	C554.946838,187.999771 556.200928,185.816223 561.326233,184.452652 
	C567.458374,182.821228 571.420044,184.686020 575.137817,191.436279 
	C586.356995,182.876038 598.800293,180.944611 612.065979,185.668289 
	C620.509949,188.675049 627.053040,194.242432 631.750366,201.811813 
	C641.587708,217.663879 639.860413,241.784683 626.905579,255.720734 
	C617.210449,266.150238 595.939819,273.842041 575.293457,259.827942 
	C575.161194,261.761505 575.056152,263.297211 574.956299,265.296326 
M610.449463,243.998734 
	C621.725098,232.377655 620.002625,211.733627 607.154053,204.503845 
	C598.010986,199.359085 585.600586,201.434479 579.491760,209.129837 
	C572.984375,217.327301 573.149536,234.967682 579.802063,242.282349 
	C587.677429,250.941589 599.909729,251.839157 610.449463,243.998734 
z"/>
<path fill="#4D4539" opacity="1.000000" stroke="none" 
	d="
M873.956421,206.583298 
	C874.801941,204.816391 876.323914,203.070602 876.379883,201.279053 
	C876.674744,191.834259 876.563171,182.377548 876.666748,172.925781 
	C876.730652,167.095886 878.811768,164.402115 883.572876,163.702866 
	C890.155884,162.736023 893.325867,164.555603 894.955078,171.023773 
	C894.355042,183.406662 894.187012,195.261505 894.114075,207.116943 
	C894.109924,207.788666 894.886902,208.465225 895.300354,209.139542 
	C895.393311,214.084961 895.486206,219.030380 895.094604,224.694153 
	C894.482483,236.572617 894.345642,247.732697 894.269043,258.893188 
	C894.266663,259.243683 894.885010,259.598419 895.213989,259.951172 
	C893.824158,265.409912 890.544983,267.360718 884.012695,266.615021 
	C879.144775,266.059265 876.689514,263.519562 876.620972,258.319336 
	C876.489258,248.335663 876.445190,238.346268 876.648560,228.365021 
	C876.728638,224.432617 875.276855,223.035782 871.425171,223.089462 
	C859.943787,223.249481 848.457581,223.312561 836.977112,223.144958 
	C833.223572,223.090164 832.038574,224.485123 832.090881,228.079147 
	C832.231262,237.729691 832.145996,247.383957 832.105164,257.036560 
	C832.075928,263.940308 829.381165,266.540680 822.336670,266.586365 
	C815.771301,266.628937 813.065674,263.929108 813.062927,257.151215 
	C813.051636,229.191452 813.059631,201.231674 813.091614,173.271942 
	C813.099731,166.155075 815.723877,163.539841 822.646301,163.545151 
	C829.310181,163.550262 832.059509,166.381134 832.103760,173.479630 
	C832.158813,182.299927 832.086670,191.121048 832.149536,199.941238 
	C832.162292,201.738541 832.530334,203.533295 832.988037,206.114914 
	C834.093994,207.262329 834.944519,207.933746 835.799316,207.939041 
	C847.574219,208.012222 859.349915,208.026154 871.124512,207.936462 
	C872.071838,207.929245 873.012634,207.054764 873.956421,206.583298 
z"/>
<path fill="#4C4338" opacity="1.000000" stroke="none" 
	d="
M1006.725098,198.016525 
	C1007.328125,198.989609 1007.931091,199.962677 1008.737183,201.263412 
	C1014.398560,196.153336 1020.983948,193.416397 1028.692017,194.128845 
	C1036.139282,194.817200 1042.471313,197.794006 1047.552246,204.102036 
	C1053.474609,197.461990 1060.617065,193.902817 1069.491577,194.078888 
	C1083.340698,194.353683 1093.961304,202.649078 1095.110352,216.415329 
	C1096.312012,230.810974 1095.916138,245.357758 1095.805054,259.835327 
	C1095.766968,264.798431 1092.065430,267.005768 1086.139771,266.740082 
	C1080.875854,266.504059 1078.137695,263.906769 1078.093140,258.622681 
	C1077.996216,247.129181 1078.239868,235.631073 1078.026001,224.140778 
	C1077.822632,213.217422 1068.820801,207.226349 1059.735107,211.778732 
	C1054.300171,214.501907 1052.666260,219.441635 1052.653442,225.094437 
	C1052.628784,235.922012 1052.732910,246.749985 1052.687012,257.577362 
	C1052.658936,264.212982 1049.695801,266.940125 1043.069824,266.694275 
	C1037.327759,266.481201 1034.972168,264.166870 1034.923584,258.299988 
	C1034.829712,246.973251 1035.026733,235.642151 1034.798096,224.319031 
	C1034.588135,213.926178 1027.710449,208.374969 1018.586914,210.840103 
	C1013.010986,212.346725 1009.159424,217.956177 1009.075623,225.148621 
	C1008.959229,235.142487 1009.013489,245.138565 1009.025269,255.133667 
	C1009.038086,266.016663 1003.137939,269.635681 993.090820,263.998962 
	C992.984558,243.425140 992.974121,223.668167 992.986023,203.911209 
	C992.989258,198.523773 994.388184,197.308029 999.720703,197.380722 
	C1001.601990,197.406357 1003.491760,196.808838 1005.377686,196.495850 
	C1005.377686,196.495850 1005.262634,196.701920 1005.316895,196.910400 
	C1005.822510,197.418106 1006.273804,197.717300 1006.725098,198.016525 
z"/>
<path fill="#D1A799" opacity="1.000000" stroke="none" 
	d="
M649.638062,209.838654 
	C657.551941,191.506287 670.710815,182.254089 689.176819,183.271973 
	C713.354065,184.604706 725.554993,203.002792 723.949524,223.946655 
	C723.557800,229.058029 719.957275,231.821823 714.249146,231.851303 
	C700.765808,231.920914 687.281860,231.880188 673.798157,231.883942 
	C672.024353,231.884430 670.250549,231.884018 668.518372,231.884018 
	C668.163513,242.479858 679.853760,252.500351 693.261230,249.718536 
	C697.056702,248.931046 700.823608,247.252411 704.181091,245.267700 
	C710.725830,241.398865 715.055786,241.498795 718.481689,246.343079 
	C721.596252,250.747116 720.267822,255.662476 714.664490,259.861023 
	C696.395630,273.549927 659.613159,270.264038 649.831848,241.530807 
	C646.269043,231.064926 646.408630,220.683929 649.638062,209.838654 
M690.494141,217.078140 
	C695.103088,217.078140 699.712036,217.078140 704.255859,217.078140 
	C705.103027,208.361191 698.093811,201.063217 688.092590,200.337662 
	C679.241516,199.695541 669.204712,205.671295 668.645142,217.078979 
	C675.605286,217.078979 682.550598,217.078979 690.494141,217.078140 
z"/>
<path fill="#4C4539" opacity="1.000000" stroke="none" 
	d="
M960.060425,264.147522 
	C944.184143,270.075531 929.651855,268.622375 917.679565,256.688843 
	C906.175476,245.222061 904.271912,230.993591 909.630371,216.018982 
	C915.912231,198.463516 935.287476,189.146057 954.067749,194.096024 
	C971.971069,198.814865 983.416443,216.958801 980.614075,236.124329 
	C978.738525,248.951294 971.812378,258.096863 960.060425,264.147522 
M929.020874,241.121704 
	C927.898804,249.536194 931.164124,252.253220 939.211487,250.435379 
	C942.590881,249.672012 946.327393,250.644745 949.878357,250.435120 
	C952.536621,250.278168 956.181335,250.355164 957.527161,248.759460 
	C959.086426,246.910812 959.744019,242.852005 958.776672,240.630707 
	C956.899048,236.319046 954.059692,232.192947 950.793762,228.779266 
	C946.873962,224.682053 940.325989,225.296799 936.585876,229.735550 
	C933.826172,233.010880 931.654846,236.782089 929.020874,241.121704 
M931.491455,212.314865 
	C930.218140,216.816208 931.422119,220.622803 935.344482,223.053741 
	C936.509827,223.775986 939.897339,223.379318 940.105835,222.763611 
	C941.158997,219.653748 942.185181,216.224426 941.826355,213.065567 
	C941.618042,211.231430 939.004089,208.808136 937.056274,208.323624 
	C935.653259,207.974640 933.563110,210.387833 931.491455,212.314865 
M953.932617,222.468292 
	C954.951355,219.594681 956.783020,216.700378 956.710632,213.854538 
	C956.660095,211.867767 954.344910,209.185684 952.373352,208.298859 
	C951.287659,207.810471 947.591431,210.102982 947.232300,211.644958 
	C946.462280,214.950073 946.761536,218.647903 947.431763,222.024323 
	C947.566711,222.704330 951.287720,222.672501 953.932617,222.468292 
M931.738647,225.359604 
	C930.547668,223.998215 929.536865,221.777039 928.122681,221.480530 
	C926.091125,221.054642 921.917175,221.880234 921.872070,222.433563 
	C921.620789,225.516617 921.681458,229.000381 922.992798,231.683807 
	C923.692200,233.115158 927.429260,234.232727 929.259583,233.688934 
	C932.711487,232.663406 932.697937,229.267410 931.738647,225.359604 
M959.690796,234.110092 
	C964.576721,233.623474 967.392578,230.579605 967.420166,225.755020 
	C967.442627,221.831863 964.346863,219.712158 960.693481,221.149307 
	C955.506042,223.189880 954.520447,230.162460 959.690796,234.110092 
z"/>
<path fill="#4D4539" opacity="1.000000" stroke="none" 
	d="
M1168.413818,253.860962 
	C1165.900146,257.154968 1163.976440,261.005768 1160.863281,262.867523 
	C1144.699585,272.533905 1122.271240,268.045746 1111.986938,253.563568 
	C1100.799316,237.809372 1103.316895,213.983459 1117.938721,201.911316 
	C1128.786255,192.955246 1141.404419,191.511368 1154.037354,197.142548 
	C1166.887573,202.870590 1172.404175,213.911774 1172.354248,227.763885 
	C1172.332031,233.921906 1169.390381,236.685120 1162.952393,236.719025 
	C1149.990112,236.787308 1137.027100,236.739349 1124.077271,236.739349 
	C1123.917603,244.311615 1129.436768,250.511612 1137.333984,252.007309 
	C1143.855713,253.242493 1149.773193,251.915405 1155.333008,248.172501 
	C1161.859863,243.778595 1166.485840,245.774551 1168.413818,253.860962 
M1123.673828,222.066681 
	C1123.998901,222.689743 1124.318604,223.854065 1124.649658,223.857254 
	C1134.698975,223.953705 1144.749268,223.935883 1155.376831,223.935883 
	C1154.801758,221.544952 1154.613403,219.723145 1153.930786,218.110718 
	C1151.484131,212.332581 1145.691772,208.941483 1139.141235,209.245941 
	C1131.787720,209.587723 1126.764893,213.577957 1123.673828,222.066681 
z"/>
<path fill="#D2A799" opacity="1.000000" stroke="none" 
	d="
M786.639893,189.607269 
	C788.832214,199.215225 786.085754,202.730225 776.732117,202.861542 
	C776.232178,202.868561 775.732300,202.872711 775.232361,202.875809 
	C763.887939,202.946167 763.885132,202.946106 763.888245,214.545883 
	C763.890381,222.545242 763.834229,230.545364 763.927246,238.543732 
	C764.024780,246.934143 768.984863,250.649902 777.076050,248.539307 
	C783.345215,246.903992 786.593689,248.191284 788.429077,253.038269 
	C790.165955,257.625061 787.621338,263.036987 782.481079,265.146820 
	C770.427124,270.094482 753.328247,267.789215 748.049805,257.229218 
	C745.953735,253.035889 744.390076,248.165283 744.167603,243.527069 
	C743.601257,231.720871 743.809448,219.870239 743.967468,208.040848 
	C744.016968,204.336273 743.221985,202.671234 739.056152,202.734467 
	C732.333862,202.836472 729.837463,200.076767 729.903442,193.762680 
	C729.964417,187.925278 732.727966,185.290771 738.985229,185.060516 
	C740.434387,185.007217 741.879761,184.853958 743.897278,184.704407 
	C743.897278,180.439850 743.789429,176.477264 743.921936,172.522720 
	C744.133728,166.204575 747.425903,163.082855 753.649475,163.074051 
	C760.029297,163.065033 763.693604,166.518188 763.901550,172.743973 
	C763.923828,173.409836 763.905029,174.077072 763.904114,174.743683 
	C763.889709,185.142914 763.889709,185.118881 774.549988,185.134552 
	C778.973389,185.141052 783.747559,184.262238 786.639893,189.607269 
z"/>
<path fill="#C59486" opacity="1.000000" stroke="none" 
	d="
M295.872070,129.088623 
	C300.616882,131.477112 304.956787,133.865173 309.296722,136.253235 
	C309.166504,136.767487 309.036255,137.281754 308.906036,137.796005 
	C309.720947,136.884109 310.596313,136.018784 311.340820,135.052628 
	C315.684540,129.415497 322.229218,127.507462 327.500061,130.379181 
	C333.302887,133.540741 336.066772,140.662552 333.108429,147.155319 
	C331.157288,151.437546 328.344452,155.570312 325.070404,158.949234 
	C320.248779,163.925232 314.672089,168.169571 308.643646,173.396042 
	C301.378204,166.327225 293.615570,159.797043 287.260315,152.104218 
	C284.600220,148.884232 283.940643,143.154480 284.136841,138.642548 
	C284.399170,132.609634 288.421509,129.932358 295.872070,129.088623 
z"/>
<path fill="#BFB4AA" opacity="1.000000" stroke="none" 
	d="
M503.923401,340.083893 
	C503.640564,338.118011 503.111267,336.152222 503.110565,334.186249 
	C503.086060,266.799591 503.111664,199.412918 503.487793,131.540344 
	C504.473846,131.077652 505.102203,131.100891 505.730530,131.124130 
	C505.796234,163.080414 505.894409,195.036652 505.918945,226.992966 
	C505.946320,262.613464 505.914368,298.234039 505.874207,333.854553 
	C505.872192,335.662781 505.549042,337.470642 504.931091,339.660461 
	C504.298920,340.056152 504.111176,340.070007 503.923401,340.083893 
z"/>
<path fill="#D0A99C" opacity="1.000000" stroke="none" 
	d="
M646.065552,308.877991 
	C649.944641,314.083221 649.654480,319.011108 645.433777,323.447205 
	C644.291016,324.648285 642.981750,325.691010 641.747986,326.805542 
	C632.599121,335.070740 635.772095,335.371185 625.420776,326.527344 
	C622.587219,324.106476 620.407166,320.401886 619.106323,316.854065 
	C617.842163,313.406128 619.312866,310.017731 622.980713,308.075531 
	C626.469788,306.227936 629.373474,307.195862 632.090759,309.613617 
	C632.580688,310.049530 633.105042,310.446838 633.811707,311.023804 
	C637.406799,308.380981 640.998901,305.189880 646.065552,308.877991 
z"/>
<path fill="#D0A99C" opacity="1.000000" stroke="none" 
	d="
M1084.359009,323.498230 
	C1083.971313,322.916809 1083.805908,322.627319 1083.623413,322.349060 
	C1080.203613,317.135010 1080.112915,312.309021 1083.378174,309.186035 
	C1086.649170,306.057648 1089.768188,306.458344 1095.507446,310.570709 
	C1098.361206,309.398560 1101.028564,307.384399 1103.690674,307.391296 
	C1110.238159,307.408264 1113.442383,315.001740 1109.127319,320.822754 
	C1106.015259,325.020782 1101.823120,328.478668 1097.789917,331.884460 
	C1096.941650,332.600739 1094.284302,332.192108 1093.153442,331.360107 
	C1090.094116,329.109375 1087.407715,326.351807 1084.359009,323.498230 
z"/>
<path fill="#4E483C" opacity="1.000000" stroke="none" 
	d="
M306.709290,240.145920 
	C308.663544,239.998520 310.442139,239.998520 313.075287,239.998520 
	C311.528778,237.663010 310.487030,236.089783 310.073700,235.465591 
	C311.255707,232.194855 311.735046,229.449768 313.170746,227.362518 
	C314.242340,225.804688 316.641510,224.125183 318.280487,224.280701 
	C319.952606,224.439377 322.547943,226.625290 322.751709,228.183548 
	C323.259064,232.063065 322.982635,236.145615 322.360992,240.041336 
	C321.836670,243.327011 322.662659,245.071289 325.822906,246.012833 
	C328.944000,246.942719 332.845947,247.348206 334.805573,249.464844 
	C336.608063,251.411743 337.203003,255.503647 336.666687,258.335632 
	C335.954712,262.095215 332.321320,260.996429 329.116272,260.624725 
	C328.716675,260.752869 328.690552,260.719055 329.012573,260.421326 
	C329.568634,259.224854 330.300903,257.955505 329.953857,257.488861 
	C328.050385,254.929489 325.882385,252.566788 323.497131,249.776031 
	C318.352325,249.334473 312.302277,248.815231 307.415253,248.395798 
	C307.008728,245.008270 306.753265,242.879410 306.497772,240.750549 
	C306.497772,240.750549 306.533600,240.293320 306.709290,240.145920 
z"/>
<path fill="#B0A395" opacity="1.000000" stroke="none" 
	d="
M1013.100281,322.574036 
	C1014.046814,322.604126 1015.276978,322.513367 1015.518127,321.977478 
	C1016.744629,319.252289 1017.464478,316.275269 1018.884033,313.671143 
	C1019.562500,312.426544 1021.362183,311.209137 1022.722168,311.128448 
	C1023.607422,311.075867 1025.362671,313.044159 1025.438232,314.192047 
	C1025.754761,319.000458 1025.696167,323.845367 1025.504272,328.666138 
	C1025.462524,329.714325 1024.303345,330.718048 1023.658691,331.742188 
	C1023.068970,330.597992 1022.155701,329.507141 1021.956421,328.298584 
	C1021.532104,325.724548 1021.478333,323.089386 1020.208069,320.269836 
	C1019.223816,322.637207 1018.385681,325.080627 1017.206055,327.346313 
	C1016.362000,328.967346 1015.060425,330.350098 1013.962952,331.839172 
	C1013.014832,330.418671 1011.894897,329.081482 1011.156982,327.559113 
	C1009.896729,324.959137 1008.875977,322.243042 1006.735413,319.826843 
	C1006.735413,322.752563 1006.921204,325.696136 1006.642151,328.595001 
	C1006.533386,329.724609 1005.377625,330.753448 1004.698669,331.828156 
	C1004.111023,330.827087 1003.044006,329.839661 1003.015076,328.822662 
	C1002.851074,323.064056 1002.935791,317.298401 1002.935791,311.644989 
	C1006.977783,309.908447 1008.998657,311.305237 1010.138428,314.771729 
	C1010.968567,317.296539 1011.990967,319.758118 1013.100281,322.574036 
M1021.484253,318.284698 
	C1021.484253,318.284698 1021.341980,318.612640 1021.341980,318.612640 
	C1021.341980,318.612640 1021.627014,318.540039 1021.484253,318.284698 
z"/>
<path fill="#4D473B" opacity="1.000000" stroke="none" 
	d="
M306.262390,240.971771 
	C306.753265,242.879410 307.008728,245.008270 307.415253,248.395798 
	C312.302277,248.815231 318.352325,249.334473 323.497131,249.776031 
	C325.882385,252.566788 328.050385,254.929489 329.953857,257.488861 
	C330.300903,257.955505 329.568634,259.224854 329.005188,260.401001 
	C316.484589,249.687943 304.003510,251.314911 291.339386,260.907684 
	C291.081177,260.311859 290.822968,259.716003 290.564758,259.120178 
	C294.126923,255.180283 297.732727,251.278610 301.232574,247.284073 
	C302.932983,245.343307 304.435120,243.228821 306.262390,240.971771 
z"/>
<path fill="#B1A599" opacity="1.000000" stroke="none" 
	d="
M862.117432,330.189148 
	C857.374695,333.653381 852.598267,333.552460 848.292480,330.700348 
	C844.844849,328.416626 843.315857,324.736969 843.719116,320.300110 
	C844.184509,315.179443 846.628967,311.873230 851.572754,310.598022 
	C856.256409,309.389832 860.595581,310.111237 863.763184,314.070404 
	C866.708923,317.752258 866.878662,323.808350 864.391479,327.713013 
	C863.863647,328.541626 863.078430,329.206207 862.117432,330.189148 
M852.979614,328.919739 
	C854.131348,328.949615 855.799255,329.481018 856.343689,328.920776 
	C858.467957,326.734497 861.102112,324.460419 861.914673,321.732819 
	C862.896667,318.436920 861.236694,314.646759 857.419312,314.173401 
	C854.768921,313.844727 851.135620,314.790405 849.232788,316.557373 
	C845.918030,319.635223 847.679260,325.333038 852.979614,328.919739 
z"/>
<path fill="#B1A599" opacity="1.000000" stroke="none" 
	d="
M726.229980,321.903076 
	C727.201355,313.498230 731.671448,309.496765 738.955505,310.109711 
	C745.289795,310.642792 749.454285,315.838776 748.959778,322.592072 
	C748.535278,328.390656 744.155396,332.413940 737.975708,332.682037 
	C731.717346,332.953522 727.710876,329.412598 726.229980,321.903076 
M744.181580,325.354584 
	C746.172546,318.138123 742.913025,312.509888 737.243713,313.429291 
	C733.371216,314.057312 730.422241,316.466125 730.471619,320.199280 
	C730.507507,322.911713 732.054688,326.498047 734.148254,328.081299 
	C737.341003,330.495941 741.069153,329.326752 744.181580,325.354584 
z"/>
<path fill="#B1A599" opacity="1.000000" stroke="none" 
	d="
M986.981323,310.703735 
	C992.500427,312.834930 995.006226,316.781525 994.667175,322.096252 
	C994.358276,326.938416 991.699646,330.500641 986.873596,332.036652 
	C982.162659,333.536041 977.818237,332.664612 974.662720,328.869232 
	C971.417297,324.965759 971.108337,320.343506 973.354736,315.761688 
	C975.566711,311.250244 979.929199,309.623413 986.981323,310.703735 
M983.410095,329.048981 
	C989.028076,327.803314 991.782593,324.041382 990.528748,319.326721 
	C989.405579,315.103302 984.752319,312.279266 981.035583,313.565308 
	C976.611328,315.096100 974.379456,320.587311 976.973694,325.031494 
	C978.034973,326.849609 980.683899,327.740936 983.410095,329.048981 
z"/>
<path fill="#B1A79A" opacity="1.000000" stroke="none" 
	d="
M714.946960,330.172180 
	C710.583069,330.932953 706.535706,331.610229 702.464539,331.815216 
	C701.702332,331.853607 700.187134,330.030823 700.142090,329.017090 
	C699.913757,323.875183 699.952942,318.712891 700.151672,313.567535 
	C700.192505,312.507874 701.069885,310.957764 701.976562,310.545227 
	C705.822083,308.795471 714.795288,311.360321 717.111328,314.605011 
	C720.427246,319.250793 719.716614,325.117249 714.946960,330.172180 
M703.911377,325.218689 
	C703.808044,331.193604 707.736816,328.809784 710.374451,328.081879 
	C714.456177,326.955383 716.113708,323.370911 714.903687,319.004944 
	C713.779602,314.949219 710.742615,313.699707 706.881958,313.983093 
	C701.642029,314.367767 704.615784,318.436432 703.945557,320.836853 
	C703.645874,321.910217 703.895508,323.136993 703.911377,325.218689 
z"/>
<path fill="#B4AA9E" opacity="1.000000" stroke="none" 
	d="
M956.822876,319.085449 
	C961.273682,318.963257 959.377075,315.802704 960.010437,313.912354 
	C960.416626,312.700134 961.183105,311.608612 961.788025,310.462952 
	C962.480957,311.595947 963.724060,312.706207 963.772034,313.865875 
	C963.984497,319.005371 963.933044,324.161591 963.771729,329.305328 
	C963.743958,330.189056 962.720276,331.041565 962.156738,331.908447 
	C961.434509,331.019684 960.261047,330.210724 960.086731,329.225067 
	C959.753784,327.342224 959.989990,325.358704 959.989990,323.109009 
	C956.452209,323.109009 953.564880,323.109009 950.138733,323.109009 
	C950.138733,325.011353 950.377014,326.658813 950.065918,328.195068 
	C949.799744,329.509369 948.903748,330.696167 948.286316,331.939362 
	C947.589478,330.855377 946.341248,329.796417 946.290710,328.683044 
	C946.064697,323.710663 946.050659,318.716949 946.271790,313.744812 
	C946.321838,312.619171 947.617798,311.548920 948.340149,310.453156 
	C948.898254,311.486115 949.722717,312.463898 949.950684,313.565186 
	C950.275635,315.135040 950.163025,316.795502 950.268188,319.090759 
	C952.501648,319.090759 954.433838,319.090759 956.822876,319.085449 
z"/>
<path fill="#B4AA9E" opacity="1.000000" stroke="none" 
	d="
M912.488403,312.946503 
	C909.898438,313.553253 907.398865,313.556152 905.041382,314.136261 
	C903.915222,314.413422 903.058533,315.786072 902.079834,316.662506 
	C903.040466,317.478241 903.908081,318.805145 904.981628,319.000458 
	C907.044556,319.375763 909.224243,319.109711 911.355469,319.109711 
	C911.564697,319.512543 911.773865,319.915375 911.983093,320.318207 
	C911.151733,321.112427 910.436035,322.343597 909.462585,322.601196 
	C907.898071,323.015259 906.088196,322.508453 904.528076,322.930695 
	C903.564697,323.191406 902.119812,324.575043 902.227234,325.238037 
	C902.406616,326.345490 903.497742,327.919861 904.485535,328.164276 
	C907.247070,328.847504 910.152222,328.950348 913.000671,329.282257 
	C913.031006,329.978851 913.061401,330.675415 913.091736,331.372009 
	C911.105652,331.597015 909.121216,331.999084 907.133301,332.016602 
	C898.164978,332.095795 898.162720,332.056519 898.152649,323.036377 
	C898.150818,321.372498 898.014221,319.689331 898.216614,318.049225 
	C898.524963,315.549744 898.821960,311.029358 899.564209,310.937836 
	C903.704346,310.427246 907.978149,310.975861 912.200806,311.246948 
	C912.374084,311.258087 912.492981,312.116180 912.488403,312.946503 
z"/>
<path fill="#B1A79A" opacity="1.000000" stroke="none" 
	d="
M684.560974,311.549164 
	C687.431274,318.234406 690.104370,324.615570 692.777466,330.996765 
	C692.512756,331.395874 692.248108,331.794983 691.983459,332.194122 
	C690.685791,331.563416 688.954651,331.267395 688.164917,330.244507 
	C684.594666,325.620667 680.304504,325.648254 676.378784,330.384369 
	C675.635986,331.280487 674.167908,331.575378 673.034485,332.147675 
	C672.649109,331.806091 672.263794,331.464508 671.878479,331.122894 
	C674.652344,324.677246 677.326843,318.184204 680.343262,311.854126 
	C680.670105,311.168243 682.975891,311.425385 684.560974,311.549164 
M680.248169,323.843414 
	C681.789062,323.768250 683.329895,323.693085 685.820557,323.571594 
	C684.507568,320.782959 683.618225,318.893982 682.728821,317.005035 
	C682.326111,317.042542 681.923340,317.080017 681.520630,317.117523 
	C680.890869,319.223358 680.261108,321.329163 680.248169,323.843414 
z"/>
<path fill="#F3E4D1" opacity="1.000000" stroke="none" 
	d="
M188.990540,205.060959 
	C190.384384,205.095886 191.556229,205.164841 192.643631,205.504318 
	C206.022675,209.681122 215.570358,203.994843 218.116196,190.045807 
	C219.411453,182.948898 220.258728,175.770218 221.329956,168.482697 
	C222.033218,168.839417 222.548294,169.005295 222.535995,169.107986 
	C221.400055,178.592072 221.371490,188.403122 218.751892,197.464676 
	C215.663177,208.148849 205.419724,212.202286 194.640244,209.002716 
	C193.066681,208.535660 191.442154,208.240402 189.436584,207.941528 
	C188.931091,207.085159 188.830200,206.152924 188.990540,205.060959 
z"/>
<path fill="#B1A79A" opacity="1.000000" stroke="none" 
	d="
M1034.907959,322.969543 
	C1034.907349,318.688843 1034.907349,314.898895 1034.907349,310.639313 
	C1039.841797,311.296387 1044.692383,308.541840 1048.841064,311.896118 
	C1048.841919,312.416290 1048.842773,312.936432 1048.843628,313.456604 
	C1046.521484,313.637543 1044.150513,313.596497 1041.897705,314.092560 
	C1040.762817,314.342468 1039.842529,315.566650 1038.825073,316.350281 
	C1039.869019,317.271057 1040.777344,318.486084 1041.988403,319.044373 
	C1043.846558,319.900940 1045.912842,320.305695 1047.890869,320.902161 
	C1045.914551,321.530396 1043.813965,321.920837 1042.004150,322.867462 
	C1040.719116,323.539612 1039.826538,324.962128 1038.758667,326.049683 
	C1039.947632,326.993591 1041.007690,328.399475 1042.355103,328.775513 
	C1044.492188,329.371857 1046.821411,329.279663 1049.069336,329.478790 
	C1049.049438,330.199005 1049.029663,330.919250 1049.009766,331.639496 
	C1044.619751,331.639496 1040.155273,332.047577 1035.907227,331.270721 
	C1035.124390,331.127563 1035.218994,326.186737 1034.907959,322.969543 
z"/>
<path fill="#B1A79A" opacity="1.000000" stroke="none" 
	d="
M764.078491,322.978119 
	C759.988037,323.471100 761.542297,326.428131 760.975464,328.436646 
	C760.588806,329.806671 759.690735,331.032379 759.021362,332.322632 
	C758.410950,330.976898 757.339417,329.653107 757.274231,328.281464 
	C757.053528,323.637512 757.320435,318.971588 757.142456,314.323975 
	C757.024353,311.240784 758.280151,310.033966 761.249817,310.304779 
	C762.570435,310.425201 763.899536,310.451355 765.224731,310.522430 
	C769.420166,310.747406 772.616638,312.566254 772.285522,317.090546 
	C771.966980,321.442657 768.729980,323.155701 764.078491,322.978119 
M761.039124,317.369049 
	C761.055481,320.581024 763.371338,320.255493 765.190369,319.650970 
	C766.324219,319.274170 767.786316,317.824890 767.821838,316.811981 
	C767.854187,315.892426 766.037598,314.039459 765.245911,314.146759 
	C763.763367,314.347656 762.432739,315.668701 761.039124,317.369049 
z"/>
<path fill="#B1A79A" opacity="1.000000" stroke="none" 
	d="
M887.115112,323.153198 
	C886.008667,325.623596 885.180786,327.810486 884.071594,329.843872 
	C883.595581,330.716675 882.570862,331.768921 881.730164,331.829254 
	C880.892395,331.889343 879.492920,331.004303 879.165222,330.198151 
	C876.623657,323.945007 874.281921,317.610687 871.840393,311.201965 
	C874.411255,310.760101 874.411255,310.760101 881.766357,325.817352 
	C883.508301,321.329803 884.957581,317.103973 886.834595,313.077454 
	C887.359009,311.952515 889.145142,311.415710 890.352478,310.609100 
	C890.398438,311.887451 890.777344,313.267395 890.424377,314.424072 
	C889.555237,317.273163 888.349854,320.019714 887.115112,323.153198 
z"/>
<path fill="#514C44" opacity="1.000000" stroke="none" 
	d="
M1005.150513,196.223602 
	C1003.491760,196.808838 1001.601990,197.406357 999.720703,197.380722 
	C994.388184,197.308029 992.989258,198.523773 992.986023,203.911209 
	C992.974121,223.668167 992.984558,243.425140 992.965027,263.659790 
	C992.293762,261.832764 991.101318,259.532806 991.081116,257.222595 
	C990.931580,240.130142 991.016174,223.035660 991.025513,205.941803 
	C991.030945,196.063416 995.443665,192.890289 1005.150513,196.223602 
z"/>
<path fill="#B0A395" opacity="1.000000" stroke="none" 
	d="
M788.617432,329.330505 
	C787.802063,330.443542 787.022095,331.126038 786.242065,331.808533 
	C785.790039,330.859528 784.974548,329.920776 784.947571,328.959839 
	C784.813110,324.175232 784.886108,319.384796 784.886108,314.445312 
	C782.366638,314.071136 780.343750,313.770721 778.192688,313.451263 
	C779.990479,309.631531 789.267883,309.190125 795.722473,312.812805 
	C793.098511,313.549835 791.239746,314.071930 788.652832,314.798553 
	C788.652832,319.352386 788.652832,324.126190 788.617432,329.330505 
z"/>
<path fill="#B1A79A" opacity="1.000000" stroke="none" 
	d="
M832.986450,328.885010 
	C834.901428,329.103180 836.374268,329.319763 837.847046,329.536316 
	C837.839661,330.197968 837.832275,330.859619 837.824890,331.521271 
	C833.835266,331.735413 829.845642,331.949554 825.096680,332.204437 
	C825.096680,325.372284 825.025940,319.131500 825.185425,312.896606 
	C825.205566,312.108826 826.434570,311.351898 827.103516,310.580688 
	C827.699463,311.442657 828.767212,312.281494 828.810791,313.170563 
	C829.013916,317.313263 829.054749,321.474030 828.912659,325.620056 
	C828.818054,328.381775 830.134277,329.131409 832.986450,328.885010 
z"/>
<path fill="#4E483C" opacity="1.000000" stroke="none" 
	d="
M256.505981,348.370422 
	C256.643860,345.413239 258.183044,342.200470 252.677277,341.430511 
	C258.450043,337.717651 263.708832,339.255798 268.875153,340.227295 
	C269.546478,340.353485 270.016479,341.550049 270.579742,342.250854 
	C269.686615,342.825012 268.852631,343.738556 267.888672,343.906586 
	C265.458038,344.330322 262.259369,343.158966 261.981842,347.700867 
	C260.281616,348.226410 258.599518,348.348633 256.505981,348.370422 
z"/>
<path fill="#3B3229" opacity="1.000000" stroke="none" 
	d="
M873.505127,206.463470 
	C873.012634,207.054764 872.071838,207.929245 871.124512,207.936462 
	C859.349915,208.026154 847.574219,208.012222 835.799316,207.939041 
	C834.944519,207.933746 834.093994,207.262329 833.102905,206.528229 
	C846.327454,206.218460 859.690674,206.281052 873.505127,206.463470 
z"/>
<path fill="#D6CBC1" opacity="1.000000" stroke="none" 
	d="
M290.338440,193.814484 
	C288.350403,191.485931 286.347504,189.099045 285.199615,186.354507 
	C284.909698,185.661316 287.350891,183.825851 288.781006,182.247986 
	C293.710999,184.623978 294.097290,187.408066 290.338440,193.814484 
z"/>
<path fill="#3B3229" opacity="1.000000" stroke="none" 
	d="
M895.417175,208.713394 
	C894.886902,208.465225 894.109924,207.788666 894.114075,207.116943 
	C894.187012,195.261505 894.355042,183.406662 894.834045,171.291962 
	C895.165466,171.032257 895.349731,171.292679 895.203491,171.648621 
	C895.013184,172.318649 895.085327,172.603256 895.273682,172.858383 
	C895.360413,184.667999 895.447205,196.477631 895.417175,208.713394 
z"/>
<path fill="#3B3229" opacity="1.000000" stroke="none" 
	d="
M895.355469,259.526978 
	C894.885010,259.598419 894.266663,259.243683 894.269043,258.893188 
	C894.345642,247.732697 894.482483,236.572617 894.948242,225.131973 
	C895.356506,236.268570 895.426697,247.685699 895.355469,259.526978 
z"/>
<path fill="#D6CBC1" opacity="1.000000" stroke="none" 
	d="
M505.773682,130.780609 
	C505.102203,131.100891 504.473846,131.077652 503.532837,131.080872 
	C503.538086,130.475769 503.855957,129.844208 504.173828,129.212646 
	C504.721466,129.620804 505.269104,130.028946 505.773682,130.780609 
z"/>
<path fill="#514C44" opacity="1.000000" stroke="none" 
	d="
M1006.689819,197.753113 
	C1006.273804,197.717300 1005.822510,197.418106 1005.401917,196.828583 
	C1005.839966,196.855423 1006.247253,197.172577 1006.689819,197.753113 
z"/>
<path fill="#D6CBC1" opacity="1.000000" stroke="none" 
	d="
M504.028076,340.263245 
	C504.111176,340.070007 504.298920,340.056152 504.769470,340.046326 
	C504.745758,340.181091 504.439270,340.311829 504.028076,340.263245 
z"/>
<path fill="#4D473B" opacity="1.000000" stroke="none" 
	d="
M289.494446,262.506653 
	C289.495361,262.487671 289.493561,262.525635 289.494446,262.506653 
z"/>
<path fill="#4D4539" opacity="1.000000" stroke="none" 
	d="
M895.411133,172.655472 
	C895.085327,172.603256 895.013184,172.318649 895.129883,171.790146 
	C895.491699,171.799469 895.607056,172.091736 895.411133,172.655472 
z"/>
<path fill="#4E483C" opacity="1.000000" stroke="none" 
	d="
M224.541565,339.005432 
	C226.745270,340.062500 228.487442,341.087799 231.281372,342.732117 
	C226.141724,343.208130 221.882050,343.669922 217.611389,343.980469 
	C212.761719,344.333099 207.898727,344.783630 203.048752,344.710724 
	C201.133163,344.681915 199.237091,343.356171 197.164246,342.305908 
	C206.024246,340.985168 215.052139,339.979431 224.541565,339.005432 
z"/>
<path fill="#4E483C" opacity="1.000000" stroke="none" 
	d="
M176.622559,344.998627 
	C176.261826,350.818970 181.408798,349.572021 184.250320,351.154236 
	C179.665436,351.154236 175.080551,351.154236 169.789230,351.154236 
	C170.810196,349.058502 171.358963,347.932007 171.952850,346.466370 
	C173.414703,345.752960 174.831421,345.378662 176.622559,344.998627 
z"/>
<path fill="#4E483C" opacity="1.000000" stroke="none" 
	d="
M248.486099,337.794006 
	C250.389801,341.423157 248.969055,343.005096 245.270752,342.993439 
	C242.720230,342.985413 240.169693,342.991882 237.258652,341.877502 
	C238.459747,340.839203 239.660843,339.800903 240.928131,338.422394 
	C243.345459,337.982788 245.696564,337.883362 248.486099,337.794006 
z"/>
<path fill="#F3E4D1" opacity="1.000000" stroke="none" 
	d="
M258.403687,177.574371 
	C252.488297,182.304871 247.167236,181.670273 243.796341,175.299271 
	C248.712219,177.976105 253.118362,179.397797 257.137543,175.314392 
	C257.616486,175.965256 258.095428,176.616119 258.403687,177.574371 
z"/>
<path fill="#D6CBC1" opacity="1.000000" stroke="none" 
	d="
M261.559753,202.899460 
	C261.587616,202.320938 261.897430,201.695908 261.985779,201.725784 
	C267.845673,203.707275 273.687683,205.741562 278.465363,207.401031 
	C274.187927,209.687225 267.231232,208.377747 261.559753,202.899460 
z"/>
<path fill="#4E483C" opacity="1.000000" stroke="none" 
	d="
M367.998688,243.110321 
	C369.059814,246.027802 370.281616,247.788696 372.997650,249.530716 
	C378.782715,253.241058 378.050415,260.241241 378.616577,266.159821 
	C378.934814,269.486298 377.678345,272.971710 377.065338,276.373627 
	C376.893066,277.329437 376.773285,278.562561 376.143829,279.126526 
	C370.156281,284.491547 370.559570,292.078278 368.919800,298.990814 
	C368.353394,301.378510 367.037964,303.633301 365.765564,305.770752 
	C365.512360,306.196106 363.427216,306.227905 362.982605,305.730255 
	C359.881470,302.259186 356.547729,298.862396 354.204773,294.900055 
	C352.896332,292.687256 353.126556,289.440704 353.058746,286.650391 
	C352.978424,283.344971 351.915344,281.474518 348.352539,280.810791 
	C347.046112,280.567413 346.089233,278.350861 345.027771,276.991516 
	C344.865875,276.784180 344.999573,276.343903 345.000977,276.011383 
	C345.054810,263.382904 343.931915,265.081390 355.288849,264.973602 
	C362.206390,264.907959 363.242584,263.204132 361.456787,256.632172 
	C360.598358,253.473145 360.641602,250.077148 359.912994,246.871063 
	C359.602600,245.505127 358.627563,243.633240 357.500641,243.215347 
	C349.595398,240.283966 349.048889,238.167450 354.979553,231.304688 
	C359.759277,232.357727 362.230133,235.085663 361.210114,240.007355 
	C363.554810,241.047653 365.619751,241.963837 367.998688,243.110321 
z"/>
<path fill="#4E483C" opacity="1.000000" stroke="none" 
	d="
M350.741455,196.262604 
	C343.220123,193.675095 340.330444,194.602158 336.122192,200.245438 
	C334.823273,201.987305 333.588287,203.339081 330.772064,201.763138 
	C328.813110,200.666901 325.808685,201.627274 323.512115,200.904175 
	C319.553772,199.657852 315.782959,197.816040 311.294891,195.960052 
	C316.132568,193.515717 319.402985,191.401871 322.977936,190.176331 
	C327.233093,188.717606 331.720490,187.864441 336.161072,187.038528 
	C340.686951,186.196793 344.552979,184.600327 345.889252,179.759247 
	C346.729218,176.716064 348.634277,174.809937 351.551605,175.592926 
	C354.811310,176.467819 357.250153,178.688309 356.229553,182.805984 
	C356.036835,183.583435 355.993927,184.731400 356.426483,185.275238 
	C358.874695,188.353165 357.979553,190.031433 352.908691,190.739273 
	C355.592834,194.117096 357.676300,196.739014 359.638733,199.208588 
	C359.211517,200.494949 358.779419,202.410568 357.944641,204.130783 
	C357.164703,205.737930 355.957336,207.137634 354.938110,208.628632 
	C353.962463,207.262817 352.552826,206.023605 352.109100,204.502625 
	C351.375153,201.986847 351.263885,199.289398 350.741455,196.262604 
z"/>
<path fill="#4E483C" opacity="1.000000" stroke="none" 
	d="
M350.944641,343.743225 
	C348.749237,347.858917 346.014404,344.044678 343.571533,344.664551 
	C342.404449,344.960724 340.249084,344.412567 340.026276,344.910858 
	C337.609497,350.315826 333.717560,347.270447 329.837036,346.779449 
	C330.876282,346.101837 332.375031,345.313171 332.307404,345.141479 
	C330.031250,339.362701 334.696472,341.249207 336.977142,341.070984 
	C340.433258,340.800842 343.944275,340.801147 347.393951,341.110504 
	C348.637543,341.222015 349.771362,342.557251 350.944641,343.743225 
z"/>
<path fill="#4E483C" opacity="1.000000" stroke="none" 
	d="
M301.328918,202.400528 
	C302.175507,202.244675 303.049988,202.103699 303.104156,202.255508 
	C303.902435,204.491821 304.591614,206.767075 305.306671,209.033081 
	C303.771667,209.252563 301.499420,210.212631 300.838135,209.554382 
	C298.751099,207.476868 297.551270,204.803772 301.328918,202.400528 
z"/>
<path fill="#4E483C" opacity="1.000000" stroke="none" 
	d="
M318.979736,315.336304 
	C321.114899,320.108002 318.756165,320.152740 316.051605,319.814697 
	C315.594055,319.278259 315.136536,318.741852 314.678986,318.205444 
	C315.995483,317.201904 317.311981,316.198395 318.979736,315.336304 
z"/>
<path fill="#4E483C" opacity="1.000000" stroke="none" 
	d="
M333.937561,303.211060 
	C334.533508,302.003723 335.391724,301.046631 336.249939,300.089539 
	C336.770660,300.603790 337.291382,301.118042 337.812134,301.632263 
	C336.608032,302.241943 335.403961,302.851624 333.937561,303.211060 
z"/>
<path fill="#4E483C" opacity="1.000000" stroke="none" 
	d="
M187.872650,345.554443 
	C188.310623,345.918121 188.399414,346.408844 188.488205,346.899597 
	C185.735336,346.899597 182.982468,346.899597 180.229599,346.899597 
	C180.215744,346.693604 180.201889,346.487579 180.188049,346.281586 
	C182.633194,346.081573 185.078339,345.881561 187.872650,345.554443 
z"/>
<path fill="#4E483C" opacity="1.000000" stroke="none" 
	d="
M386.133514,282.528564 
	C386.215729,281.311829 386.374420,280.432465 386.533142,279.553101 
	C387.001038,279.814331 387.468903,280.075562 387.936798,280.336792 
	C387.361206,281.179840 386.785614,282.022919 386.133514,282.528564 
z"/>
<path fill="#4E483C" opacity="1.000000" stroke="none" 
	d="
M191.474930,347.769348 
	C192.154251,348.346252 192.615707,349.152435 193.077179,349.958649 
	C192.620651,350.131805 192.164108,350.304962 191.707581,350.478119 
	C191.557419,349.651611 191.407242,348.825134 191.474930,347.769348 
z"/>
<path fill="#4E483C" opacity="1.000000" stroke="none" 
	d="
M388.778259,275.209473 
	C388.423035,275.795898 388.005157,276.090546 387.587280,276.385193 
	C387.474609,275.949554 387.361938,275.513947 387.249237,275.078308 
	C387.738007,275.024780 388.226776,274.971252 388.778259,275.209473 
z"/>
<path fill="#4E483C" opacity="1.000000" stroke="none" 
	d="
M388.450195,287.623474 
	C388.337769,288.057251 388.062073,288.320282 387.786377,288.583313 
	C387.677551,288.469147 387.568695,288.355011 387.459869,288.240845 
	C387.735565,287.978149 388.011230,287.715424 388.450195,287.623474 
z"/>
<path fill="#4E483C" opacity="1.000000" stroke="none" 
	d="
M302.584930,218.045135 
	C302.202026,218.278198 301.821442,218.276184 301.442993,218.246643 
	C301.432373,218.245804 301.444733,217.950836 301.446381,217.793030 
	C301.826752,217.797409 302.207153,217.801804 302.584930,218.045135 
z"/>
<path fill="#4E483C" opacity="1.000000" stroke="none" 
	d="
M326.623322,207.550125 
	C327.057251,207.662567 327.320343,207.938278 327.583435,208.213989 
	C327.469238,208.322815 327.261475,208.532501 327.254333,208.525894 
	C326.975677,208.267349 326.715271,207.989075 326.623322,207.550125 
z"/>
<path fill="#4E483C" opacity="1.000000" stroke="none" 
	d="
M234.742340,346.593628 
	C234.861862,346.443695 235.065918,346.422974 235.269974,346.402252 
	C235.122269,346.509125 234.974579,346.615967 234.742340,346.593628 
z"/>
<path fill="#4E483C" opacity="1.000000" stroke="none" 
	d="
M313.472595,346.456238 
	C313.521912,346.428162 313.423248,346.484283 313.472595,346.456238 
z"/>
<path fill="#F9F5F0" opacity="1.000000" stroke="none" 
	d="
M610.177856,244.245041 
	C599.909729,251.839157 587.677429,250.941589 579.802063,242.282349 
	C573.149536,234.967682 572.984375,217.327301 579.491760,209.129837 
	C585.600586,201.434479 598.010986,199.359085 607.154053,204.503845 
	C620.002625,211.733627 621.725098,232.377655 610.177856,244.245041 
z"/>
<path fill="#FAF4EE" opacity="1.000000" stroke="none" 
	d="
M689.994995,217.078552 
	C682.550598,217.078979 675.605286,217.078979 668.645142,217.078979 
	C669.204712,205.671295 679.241516,199.695541 688.092590,200.337662 
	C698.093811,201.063217 705.103027,208.361191 704.255859,217.078140 
	C699.712036,217.078140 695.103088,217.078140 689.994995,217.078552 
z"/>
<path fill="#F4F2ED" opacity="1.000000" stroke="none" 
	d="
M929.121094,240.727020 
	C931.654846,236.782089 933.826172,233.010880 936.585876,229.735550 
	C940.325989,225.296799 946.873962,224.682053 950.793762,228.779266 
	C954.059692,232.192947 956.899048,236.319046 958.776672,240.630707 
	C959.744019,242.852005 959.086426,246.910812 957.527161,248.759460 
	C956.181335,250.355164 952.536621,250.278168 949.878357,250.435120 
	C946.327393,250.644745 942.590881,249.672012 939.211487,250.435379 
	C931.164124,252.253220 927.898804,249.536194 929.121094,240.727020 
z"/>
<path fill="#EFECE6" opacity="1.000000" stroke="none" 
	d="
M931.635498,211.941925 
	C933.563110,210.387833 935.653259,207.974640 937.056274,208.323624 
	C939.004089,208.808136 941.618042,211.231430 941.826355,213.065567 
	C942.185181,216.224426 941.158997,219.653748 940.105835,222.763611 
	C939.897339,223.379318 936.509827,223.775986 935.344482,223.053741 
	C931.422119,220.622803 930.218140,216.816208 931.635498,211.941925 
z"/>
<path fill="#EFECE6" opacity="1.000000" stroke="none" 
	d="
M953.644043,222.718567 
	C951.287720,222.672501 947.566711,222.704330 947.431763,222.024323 
	C946.761536,218.647903 946.462280,214.950073 947.232300,211.644958 
	C947.591431,210.102982 951.287659,207.810471 952.373352,208.298859 
	C954.344910,209.185684 956.660095,211.867767 956.710632,213.854538 
	C956.783020,216.700378 954.951355,219.594681 953.644043,222.718567 
z"/>
<path fill="#EFECE6" opacity="1.000000" stroke="none" 
	d="
M931.879761,225.743683 
	C932.697937,229.267410 932.711487,232.663406 929.259583,233.688934 
	C927.429260,234.232727 923.692200,233.115158 922.992798,231.683807 
	C921.681458,229.000381 921.620789,225.516617 921.872070,222.433563 
	C921.917175,221.880234 926.091125,221.054642 928.122681,221.480530 
	C929.536865,221.777039 930.547668,223.998215 931.879761,225.743683 
z"/>
<path fill="#F3F0EC" opacity="1.000000" stroke="none" 
	d="
M959.287842,234.026978 
	C954.520447,230.162460 955.506042,223.189880 960.693481,221.149307 
	C964.346863,219.712158 967.442627,221.831863 967.420166,225.755020 
	C967.392578,230.579605 964.576721,233.623474 959.287842,234.026978 
z"/>
<path fill="#F3F0EC" opacity="1.000000" stroke="none" 
	d="
M1123.794922,221.703979 
	C1126.764893,213.577957 1131.787720,209.587723 1139.141235,209.245941 
	C1145.691772,208.941483 1151.484131,212.332581 1153.930786,218.110718 
	C1154.613403,219.723145 1154.801758,221.544952 1155.376831,223.935883 
	C1144.749268,223.935883 1134.698975,223.953705 1124.649658,223.857254 
	C1124.318604,223.854065 1123.998901,222.689743 1123.794922,221.703979 
z"/>
<path fill="#F8F7F3" opacity="1.000000" stroke="none" 
	d="
M1021.555664,318.412354 
	C1021.627014,318.540039 1021.341980,318.612640 1021.341980,318.612640 
	C1021.341980,318.612640 1021.484253,318.284698 1021.555664,318.412354 
z"/>
<path fill="#F7F3EB" opacity="1.000000" stroke="none" 
	d="
M852.597778,328.792603 
	C847.679260,325.333038 845.918030,319.635223 849.232788,316.557373 
	C851.135620,314.790405 854.768921,313.844727 857.419312,314.173401 
	C861.236694,314.646759 862.896667,318.436920 861.914673,321.732819 
	C861.102112,324.460419 858.467957,326.734497 856.343689,328.920776 
	C855.799255,329.481018 854.131348,328.949615 852.597778,328.792603 
z"/>
<path fill="#F7F3EB" opacity="1.000000" stroke="none" 
	d="
M743.938416,325.672363 
	C741.069153,329.326752 737.341003,330.495941 734.148254,328.081299 
	C732.054688,326.498047 730.507507,322.911713 730.471619,320.199280 
	C730.422241,316.466125 733.371216,314.057312 737.243713,313.429291 
	C742.913025,312.509888 746.172546,318.138123 743.938416,325.672363 
z"/>
<path fill="#F7F3EB" opacity="1.000000" stroke="none" 
	d="
M983.010376,329.051453 
	C980.683899,327.740936 978.034973,326.849609 976.973694,325.031494 
	C974.379456,320.587311 976.611328,315.096100 981.035583,313.565308 
	C984.752319,312.279266 989.405579,315.103302 990.528748,319.326721 
	C991.782593,324.041382 989.028076,327.803314 983.010376,329.051453 
z"/>
<path fill="#F7F3EB" opacity="1.000000" stroke="none" 
	d="
M703.903625,324.756409 
	C703.895508,323.136993 703.645874,321.910217 703.945557,320.836853 
	C704.615784,318.436432 701.642029,314.367767 706.881958,313.983093 
	C710.742615,313.699707 713.779602,314.949219 714.903687,319.004944 
	C716.113708,323.370911 714.456177,326.955383 710.374451,328.081879 
	C707.736816,328.809784 703.808044,331.193604 703.903625,324.756409 
z"/>
<path fill="#F3E4D1" opacity="1.000000" stroke="none" 
	d="
M679.939758,323.639221 
	C680.261108,321.329163 680.890869,319.223358 681.520630,317.117523 
	C681.923340,317.080017 682.326111,317.042542 682.728821,317.005035 
	C683.618225,318.893982 684.507568,320.782959 685.820557,323.571594 
	C683.329895,323.693085 681.789062,323.768250 679.939758,323.639221 
z"/>
<path fill="#EFECE6" opacity="1.000000" stroke="none" 
	d="
M761.039001,316.946411 
	C762.432739,315.668701 763.763367,314.347656 765.245911,314.146759 
	C766.037598,314.039459 767.854187,315.892426 767.821838,316.811981 
	C767.786316,317.824890 766.324219,319.274170 765.190369,319.650970 
	C763.371338,320.255493 761.055481,320.581024 761.039001,316.946411 
z"/>
</svg>